<svg width="94" height="24" viewBox="0 0 94 24" fill="none" xmlns="http://www.w3.org/2000/svg">
<g id="Sanofi logo">
<path id="Vector" d="M33.3768 7.66965C31.2427 6.83947 28.9704 6.41553 26.6785 6.41996C21.5422 6.41996 17.9371 9.8327 17.9371 15.2098C17.9371 20.648 21.0651 23.9996 26.6092 23.9996C28.9343 24.0154 31.2378 23.5562 33.3768 22.6505C33.6501 22.5515 33.8823 22.3646 34.0364 22.1195C34.1904 21.8743 34.2576 21.5851 34.2271 21.2977V9.0225C34.2271 8.24288 33.9231 7.87219 33.3768 7.66965ZM29.8064 18.7142C29.8064 19.2225 29.5332 19.4594 28.9561 19.6276C28.2055 19.8397 27.428 19.9427 26.6477 19.9333C24.47 19.9333 22.4155 18.6492 22.4155 15.2021C22.4155 11.755 24.4546 10.4747 26.6477 10.4747C27.4278 10.4641 28.2053 10.5658 28.9561 10.7767C29.5332 10.9448 29.8064 11.1817 29.8064 11.69V18.7142Z" fill="black"/>
<path id="Vector_2" d="M4.74052 12.062C4.74052 11.0301 5.79468 10.3728 7.59911 10.3728C9.3343 10.3728 11.0002 10.946 12.7354 11.9015C12.8891 11.9916 13.0648 12.0379 13.2433 12.0352C13.4023 12.0331 13.5578 11.9884 13.6933 11.9056C13.8288 11.8228 13.9392 11.7052 14.0128 11.5652L15.0669 9.3333C15.1529 9.1541 15.1989 8.95854 15.2016 8.76005C15.2019 8.62113 15.1641 8.48475 15.0923 8.36557C15.0204 8.24639 14.9172 8.1489 14.7938 8.08361C12.643 6.89043 10.2165 6.27403 7.75302 6.29508C3.19769 6.29508 0.273682 8.72566 0.273682 12.3753C0.273682 19.5371 11.2234 16.7626 11.2234 21.7308C11.227 22.1558 11.158 22.5783 11.0195 22.9804C10.9988 23.0461 10.9872 23.1142 10.9849 23.183C10.9816 23.2491 10.9929 23.3151 11.0179 23.3764C11.043 23.4377 11.0812 23.4928 11.1299 23.5379C11.1786 23.5831 11.2367 23.6171 11.3 23.6376C11.3634 23.6582 11.4304 23.6647 11.4965 23.6569H14.5553C15.067 23.6569 15.2708 23.4887 15.4401 22.9804C15.6293 22.3612 15.7215 21.7167 15.7133 21.0696C15.6941 13.3804 4.74052 15.2263 4.74052 12.062Z" fill="black"/>
<path id="Vector_3" d="M46.0609 6.41992C43.729 6.43586 41.4168 6.84685 39.2241 7.63521C38.9507 7.73421 38.7186 7.92114 38.5645 8.16628C38.4104 8.41142 38.3433 8.70067 38.3738 8.98806V22.9715C38.3681 23.0618 38.3819 23.1522 38.4141 23.2368C38.4464 23.3214 38.4963 23.3983 38.5607 23.4622C38.6251 23.5262 38.7025 23.5758 38.7877 23.6079C38.8728 23.6399 38.9639 23.6535 39.0548 23.648H42.1327C42.2236 23.6535 42.3146 23.6399 42.3998 23.6079C42.485 23.5758 42.5623 23.5262 42.6267 23.4622C42.6911 23.3983 42.7411 23.3214 42.7733 23.2368C42.8056 23.1522 42.8193 23.0618 42.8137 22.9715V11.6212C42.8137 11.1167 43.083 10.8798 43.6293 10.7422C44.4527 10.5442 45.2986 10.4542 46.1455 10.4747C47.9808 10.4747 49.4428 11.3193 49.4428 13.3448V22.9715C49.4371 23.0618 49.4509 23.1522 49.4831 23.2368C49.5154 23.3214 49.5653 23.3983 49.6297 23.4622C49.6941 23.5262 49.7715 23.5758 49.8567 23.6079C49.9418 23.6399 50.0329 23.6535 50.1238 23.648H53.2017C53.2923 23.653 53.3829 23.6389 53.4676 23.6066C53.5523 23.5744 53.6292 23.5246 53.6931 23.4607C53.7571 23.3968 53.8067 23.3202 53.8387 23.2359C53.8707 23.1516 53.8844 23.0615 53.8788 22.9715V12.7715C53.848 8.64795 51.2972 6.41992 46.0609 6.41992Z" fill="black"/>
<path id="Vector_4" d="M65.5484 6.41992C60.4467 6.41992 57.1149 10.1002 57.1149 15.2097C57.1149 20.3193 60.4467 23.9995 65.7869 23.9995C70.8886 23.9995 74.2204 20.3193 74.2204 15.2097C74.2204 10.1002 70.8886 6.41992 65.5484 6.41992ZM65.7869 19.9333C63.2707 19.9333 61.6048 18.3091 61.6048 15.2021C61.6048 12.0951 63.2707 10.4747 65.5484 10.4747C68.0646 10.4747 69.7305 12.0951 69.7305 15.2021C69.7305 18.3091 68.0646 19.9333 65.7869 19.9333Z" fill="black"/>
<path id="Vector_5" d="M93.1613 6.75525H90.1026C89.7265 6.75525 89.4216 7.0581 89.4216 7.43168V22.9705C89.4216 23.3441 89.7265 23.647 90.1026 23.647H93.1613C93.5374 23.647 93.8423 23.3441 93.8423 22.9705V7.43168C93.8423 7.0581 93.5374 6.75525 93.1613 6.75525Z" fill="black"/>
<path id="Vector_6" d="M86.6321 0.23735C85.9313 0.073096 85.213 -0.00645929 84.493 0.000409551C80.2608 0.000409551 77.5215 2.23226 77.5215 7.09723V22.9724C77.5159 23.0623 77.5296 23.1524 77.5616 23.2368C77.5936 23.3211 77.6432 23.3977 77.7072 23.4616C77.7711 23.5255 77.848 23.5752 77.9327 23.6075C78.0174 23.6398 78.108 23.6539 78.1986 23.6488H81.2265C81.3174 23.6544 81.4085 23.6407 81.4937 23.6087C81.5788 23.5767 81.6562 23.5271 81.7206 23.4631C81.785 23.3991 81.8349 23.3223 81.8672 23.2377C81.8994 23.1531 81.9132 23.0627 81.9075 22.9724V10.4756H86.2243C86.3158 10.4838 86.408 10.4719 86.4944 10.4408C86.5808 10.4097 86.6592 10.3602 86.7242 10.2956C86.7891 10.2311 86.839 10.1532 86.8703 10.0674C86.9016 9.98159 86.9136 9.89003 86.9053 9.79914V7.46792C86.9169 7.37477 86.9077 7.28021 86.8781 7.19107C86.8485 7.10192 86.7993 7.02042 86.7342 6.95242C86.669 6.88443 86.5895 6.83165 86.5013 6.79787C86.4132 6.76409 86.3185 6.75016 86.2243 6.7571H81.9075V6.37493C81.9075 4.5176 82.7232 3.56982 84.6007 3.56982C85.2817 3.56982 86.0127 3.7418 86.2667 3.7418C86.6745 3.7418 86.8437 3.50486 86.913 3.09977L87.2554 1.34181C87.2895 1.19737 87.3113 1.05036 87.3208 0.902315C87.3132 0.539258 87.1092 0.340535 86.6321 0.23735Z" fill="black"/>
<path id="Vector_7" d="M2.30844 19.3282C0.915683 19.3282 0 20.2034 0 21.6556C0 23.1078 0.919542 23.9868 2.41618 23.9868C3.80894 23.9868 4.72463 23.0773 4.72463 21.6556C4.72463 20.234 3.80509 19.3282 2.30844 19.3282Z" fill="#7A00E6"/>
<path id="Vector_8" d="M91.5838 0.00683594C90.1872 0.00683594 89.2754 0.885831 89.2754 2.33806C89.2754 3.79029 90.1949 4.66926 91.6916 4.66926C93.0843 4.66926 94 3.75589 94 2.33806C94 0.920226 93.0766 0.00683594 91.5838 0.00683594Z" fill="#7A00E6"/>
</g>
</svg>
